HIERARCHY
ROOT pelvis
{
	OFFSET 0.000000 0.000000 0.000000
	CHANNELS 6 Xposition Yposition Zposition Zrotation Xrotation Yrotation
	JOINT lfemur
	{
		OFFSET 11.446000 0.000000 0.000000
		CHANNELS 3 Zrotation Xrotation Yrotation
		JOINT ltibia
		{
			OFFSET 0.000000 -42.030400 0.000000
			CHANNELS 3 Zrotation Xrotation Yrotation
			JOINT lfoot
			{
				OFFSET 0.000000 -39.930200 0.000000
				CHANNELS 3 Zrotation Xrotation Yrotation
				JOINT ltoes
				{
					OFFSET 0.000000 0.000000 11.775800
					CHANNELS 3 Zrotation Xrotation Yrotation
					End Site
					{
					    OFFSET 0.000000 0.000000 5.000000
					}
				}
			}
		}
	}
	JOINT rfemur
	{
		OFFSET -11.446000 0.000000 0.000000
		CHANNELS 3 Zrotation Xrotation Yrotation
		JOINT rtibia
		{
			OFFSET 0.000000 -42.030400 0.000000
			CHANNELS 3 Zrotation Xrotation Yrotation
			JOINT rfoot
			{
				OFFSET 0.000000 -39.930200 0.000000
				CHANNELS 3 Zrotation Xrotation Yrotation
				JOINT rtoes
				{
					OFFSET 0.000000 0.000000 11.775800
					CHANNELS 3 Zrotation Xrotation Yrotation
					End Site
					{
					    OFFSET 0.000000 0.000000 5.000000
					}
				}
			}
		}
	}
	JOINT thorax
	{
		OFFSET 0.000000 11.255600 -5.000000
		CHANNELS 3 Zrotation Xrotation Yrotation
		JOINT head
		{
			OFFSET 0.000000 43.799300 0.000000
			CHANNELS 3 Zrotation Xrotation Yrotation
			End Site
			{
			    OFFSET 0.000000 5.000000 0.000000
			}
		}
		JOINT lclavicle
		{
			OFFSET 0.000000 39.863000 0.000000
			CHANNELS 3 Zrotation Xrotation Yrotation
			JOINT lhumerus
			{
				OFFSET 17.380600 4.958300 0.000000
				CHANNELS 3 Zrotation Xrotation Yrotation
				JOINT lradius
				{
					OFFSET 0.000000 -27.561300 0.000000
					CHANNELS 3 Zrotation Xrotation Yrotation
					JOINT lhand
					{
						OFFSET 0.000000 -26.933000 0.000000
						CHANNELS 3 Zrotation Xrotation Yrotation
						End Site
						{
						    OFFSET 0.000000 -5.000000 0.000000
						}
					}
				}
			}
		}
		JOINT rclavicle
		{
			OFFSET 0.000000 39.863000 0.000000
			CHANNELS 3 Zrotation Xrotation Yrotation
			JOINT rhumerus
			{
				OFFSET -17.380600 4.958300 0.000000
				CHANNELS 3 Zrotation Xrotation Yrotation
				JOINT rradius
				{
					OFFSET 0.000000 -27.561300 0.000000
					CHANNELS 3 Zrotation Xrotation Yrotation
					JOINT rhand
					{
						OFFSET 0.000000 -26.933000 0.000000
						CHANNELS 3 Zrotation Xrotation Yrotation
						End Site
						{
						    OFFSET 0.000000 -5.000000 0.000000
						}
					}
				}
			}
		}
	}
}
MOTION
Frames:	7
Frame Time:	0.0333333
-227.099 88.767 -56.2049 0.807023 0.133994 89.2554 -3.29102 -1.21537 0.458785 1.34045 10.6544 15.204 5.33585 3.24464 -0.0101169 2.12698e-015 -5 1.59635e-015 2.48676 -0.237263 -0.582096 -0.835534 13.1819 -10.428 -4.59624 1.49662 -0.184302 -9.3427e-016 -5 -1.59635e-015 -4.71365 -0.00985608 -1.54683 3.60567 9.57805 -4.97828 -8.44849e-033 1.21756e-015 3.97569e-016 14.0376 -10.5727 62.8051 2.95015 -0.149645 -116.034 9.26816 -8.80554 -8.78589 -8.44849e-033 1.21756e-015 3.97569e-016 -12.1023 -4.61206 -29.61 14.0505 -0.807014 69.9084 -1.74581 -3.73499 9.80157 
-227.078 88.7731 -56.1837 0.808886 0.129092 89.307 -3.25786 -1.18409 0.481189 1.32776 10.6276 15.1157 5.33204 3.25452 -0.0102856 -3.96488e-017 -5 -9.57811e-015 2.50618 -0.189469 -0.568197 -0.841224 13.1143 -10.4751 -4.52773 1.55108 -0.18143 1.19271e-015 -5 -0 -4.68717 0.684176 -1.40585 3.66016 9.05019 -5.12107 -7.95139e-016 1.59028e-015 -0 14.1553 -11.3347 63.1939 2.99622 -0.0644191 -116.445 9.42268 -8.68246 -8.7799 -7.95139e-016 1.59028e-015 -0 -12.1696 -5.19053 -27.6073 14.7133 -1.78963 67.1956 -1.57009 -2.2914 9.83008 
-227.058 88.7728 -56.1626 0.809688 0.114767 89.3948 -3.23173 -1.20243 0.477872 1.35421 10.6704 15.0081 5.30869 3.23213 -0.0107283 1.19271e-015 -5 -0 2.55519 -0.040734 -0.543299 -0.840521 12.8671 -10.661 -4.53523 1.61263 -0.181395 -2.24628e-015 -5 1.59635e-015 -4.70173 0.477734 -1.39765 3.80336 9.26414 -4.9622 -7.95139e-016 -1.9133e-015 3.97569e-016 14.0381 -11.0941 62.8133 3.01373 -0.00341069 -116.327 9.4995 -8.88138 -8.75616 -7.95139e-016 -1.9133e-015 3.97569e-016 -11.8742 -4.98497 -24.7 15.1466 -3.09815 63.8154 -1.37339 -0.514649 9.86356 
-227.049 88.7722 -56.1589 0.79703 0.134144 89.4508 -3.24868 -1.19553 0.470898 1.34655 10.625 14.9939 5.19137 3.27463 -0.0111488 -7.95139e-016 -5 -0 2.53088 -0.0617484 -0.574661 -0.818737 12.9083 -10.6625 -4.62137 1.5544 -0.181359 -1.84872e-015 -5 1.59635e-015 -4.55365 0.500542 -1.35655 3.72043 9.38145 -5.07488 -7.95139e-016 2.16178e-015 -0 13.4099 -10.9556 62.1263 3.11267 -0.077146 -116.013 9.5057 -9.42092 -8.70841 -7.95139e-016 2.16178e-015 -0 -11.9625 -4.90208 -25.1694 15.0233 -2.98477 64.3326 -1.46193 -0.926673 9.85422 
-227.063 88.771 -56.1582 0.67559 0.165677 89.457 -3.2931 -1.33146 0.406884 1.37117 10.651 15.0336 5.35411 3.25743 -0.0115853 -1.05358e-015 -5 1.59635e-015 2.48727 -0.248718 -0.587375 -0.798939 13.0206 -10.6592 -4.55868 1.5266 -0.181335 -1.84872e-015 -5 1.59635e-015 -4.5517 0.469763 -1.37337 3.6942 9.54219 -5.14835 -1.59028e-015 4.72114e-016 -0 13.5123 -10.9693 62.1352 2.95841 -0.0345209 -115.79 9.41854 -9.15652 -8.74274 -1.59028e-015 4.72114e-016 -0 -11.9581 -5.00027 -24.8477 15.0678 -3.08055 64.1516 -1.34148 -0.984359 9.85993 
-227.053 88.7702 -56.1479 0.643288 0.169639 89.5206 -3.28516 -1.3548 0.382294 1.37634 10.6292 14.9537 5.47464 3.26931 -0.0120781 2.80281e-015 -5 4.78906e-015 2.48773 -0.28433 -0.590123 -0.796819 13.0503 -10.7025 -4.53031 1.51401 -0.181319 1.84872e-015 -5 -1.59635e-015 -4.5949 0.271876 -1.37144 3.55626 9.82288 -5.00107 -7.95139e-016 2.88238e-015 -0 13.7186 -10.805 62.2373 2.89474 -0.0781666 -116.071 9.4154 -9.19651 -8.73812 -7.95139e-016 2.88238e-015 -0 -11.8599 -4.82971 -24.715 15.065 -3.15044 64.1782 -1.26262 -0.852687 9.86512 
-227.041 88.7693 -56.1355 0.595874 0.17281 89.5628 -3.26363 -1.42096 0.393439 1.37181 10.688 14.8645 5.49997 3.2494 -0.0126662 6.56007e-016 -5 -1.59635e-015 2.52121 -0.247461 -0.553375 -0.80799 12.9216 -10.7902 -4.59313 1.51892 -0.181311 -4.49257e-015 -5 3.1927e-015 -4.53054 0.230057 -1.37365 3.40995 9.87923 -4.79463 -0 -3.57812e-015 -0 13.4899 -10.707 62.0554 2.97934 -0.0249375 -116.061 9.56598 -9.3925 -8.70484 -0 -3.57812e-015 -0 -11.8725 -4.81844 -24.7781 15.0334 -3.13752 64.3377 -1.2741 -0.843217 9.86503 
